<svg
            width="452"
            height="512"
            viewBox="0 0 452 512"
            fill="none"
            xmlns="http://www.w3.org/2000/svg"
          >
            <path
              d="M41.085 460.819L0 0H451.456L410.327 460.746L225.452 512L41.085 460.819Z"
              fill="#264DE4"
            />
            <path
              d="M375.116 431.408L410.264 37.678H225.728V472.824L375.116 431.408Z"
              fill="#2965F1"
            />
            <path
              d="M94.188 208.59L99.253 265.107H225.728V208.59H94.188ZM89.147 150.715H225.728V94.197H84.009L89.147 150.715ZM225.728 355.372L225.48 355.438L162.536 338.442L158.513 293.366H101.777L109.696 382.107L225.468 414.247L225.728 414.174V355.372Z"
              fill="#EBEBEB"
            />
            <path
              d="M225.533 208.59V265.107H295.128L288.568 338.406L225.533 355.419V414.219L341.397 382.107L342.247 372.558L355.527 223.766L356.907 208.59L367.11 94.197H225.533V150.715H305.172L300.028 208.59H225.533Z"
              fill="white"
            />
          </svg>