<svg
            width="630"
            height="630"
            viewBox="0 0 630 630"
            fill="none"
            xmlns="http://www.w3.org/2000/svg"
          >
            <path
              d="M73.3791 294.591C64.6105 248.11 46.3343 235.736 41.6722 226.989C39.7498 223.135 38.0468 219.13 36.5749 215C36.3286 219.129 35.8761 221.731 32.9551 224.862C27.0903 231.145 2.18181 255.535 0.0855832 308.348C-1.86746 357.59 30.2117 387.953 34.45 391.092C37.7089 393.019 41.678 391.133 43.6138 389.364C59.0778 376.612 80.2062 342.614 73.3963 294.591"
              fill="#10AA50"
            />
            <path
              d="M37.9036 364.871C37.096 377.059 36.5176 384.141 34.4672 391.105C34.4672 391.105 35.8131 402.709 36.7581 415H40.1029C40.9008 406.345 42.119 397.753 43.7513 389.268C39.4214 386.708 38.0697 375.566 37.9036 364.871Z"
              fill="#B8C4C2"
            />
            <path
              d="M43.7455 389.275C39.3698 386.845 38.1041 375.469 37.9093 364.871C38.9915 347.388 39.3069 329.849 38.8543 312.326C38.6253 303.132 38.9632 227.168 36.97 216.046C38.3334 219.813 39.9043 223.466 41.6722 226.982C46.3343 235.736 64.6162 248.11 73.3791 294.591C80.2062 342.532 59.1923 376.44 43.7455 389.275Z"
              fill="#12924F"
            />
            <path
              d="M620.495 372.469C618.621 372.469 616.789 371.803 615.23 370.555C613.67 369.307 612.453 367.533 611.73 365.456C611.007 363.379 610.811 361.092 611.167 358.882C611.523 356.671 612.415 354.637 613.731 353.034C615.047 351.431 616.727 350.331 618.562 349.873C620.396 349.415 622.302 349.618 624.041 350.458C625.779 351.298 627.272 352.737 628.332 354.594C629.391 356.45 629.971 358.642 629.997 360.893C630.031 362.411 629.809 363.922 629.345 365.334C628.882 366.747 628.185 368.032 627.298 369.113C626.41 370.194 625.35 371.049 624.181 371.625C623.012 372.202 621.758 372.489 620.495 372.469ZM620.495 350.666C618.783 350.653 617.106 351.25 615.677 352.382C614.248 353.515 613.13 355.131 612.466 357.027C611.802 358.923 611.621 361.013 611.947 363.033C612.272 365.053 613.089 366.911 614.294 368.372C615.499 369.833 617.038 370.832 618.715 371.242C620.393 371.652 622.134 371.454 623.718 370.673C625.302 369.893 626.658 368.566 627.613 366.859C628.569 365.152 629.081 363.143 629.086 361.086C629.108 359.718 628.902 358.359 628.479 357.089C628.056 355.819 627.425 354.664 626.624 353.693C625.823 352.721 624.868 351.953 623.815 351.433C622.762 350.913 621.633 350.652 620.495 350.666ZM622.786 368.271L620.334 361.919H618.358V368.271H616.921V353.818H620.466C623.107 353.818 624.206 355.195 624.206 357.858C624.206 359.978 623.376 361.299 621.829 361.705L624.361 368.25L622.786 368.271ZM618.416 360.425H620.495C622.179 360.425 622.82 359.737 622.82 357.893C622.82 356.048 622.207 355.422 620.312 355.422H618.416V360.425Z"
              fill="#21313C"
            />
            <path
              d="M479.079 362.063C481.651 364.534 486.789 365.552 491.319 365.552C497.19 365.552 502.946 364.245 508.57 358.14C514.297 351.884 518.238 342.312 518.238 327.026C518.238 312.34 513.587 300.42 504.045 293.442C498.661 289.375 491.686 287.771 483.73 287.771C481.439 287.771 479.08 287.916 477.739 288.645C477.19 289.166 476.801 289.893 476.634 290.71C476.393 293.325 476.393 313.242 476.393 325.017C476.393 337.088 476.393 353.922 476.634 355.986C476.76 357.734 477.493 360.804 479.079 362.091M454.658 281.233C456.737 281.233 464.641 281.667 468.318 281.667C475.191 281.667 479.939 281.233 492.785 281.233C503.553 281.233 512.613 284.722 519.091 291.405C526.926 299.553 531.119 310.888 531.119 324.7C531.119 344.328 523.673 355.67 516.187 362.063C508.742 368.752 499.057 372.531 485.259 372.531C477.917 372.531 465.311 372.242 454.79 372.097H454.572C454.079 370.934 455.471 366.399 456.33 366.282C459.194 365.896 459.95 365.759 461.267 365.105C463.49 364.011 464.011 362.648 464.257 357.851C464.624 348.836 464.503 338.079 464.503 325.863C464.503 317.144 464.624 300.131 464.383 294.749C464.011 290.249 462.43 289.086 459.228 288.212C456.958 287.632 454.664 287.196 452.355 286.904C452.115 286.03 453.993 282.086 454.606 281.233"
              fill="#21313C"
            />
            <path
              d="M561.445 288.611C560.958 288.755 560.346 290.214 560.346 290.937C560.22 296.174 560.099 309.835 560.099 319.284C560.13 319.465 560.205 319.63 560.314 319.76C560.423 319.89 560.562 319.978 560.712 320.014C562.299 320.158 566.216 320.31 569.521 320.31C574.172 320.31 576.863 319.58 578.33 318.706C582.247 316.38 584.057 311.287 584.057 305.768C584.057 293.118 576.715 288.322 565.827 288.322C564.355 288.299 562.883 288.396 561.422 288.611M589.2 346.764C589.2 333.97 581.365 326.703 567.047 326.703C566.44 326.703 561.892 326.558 560.81 326.847C560.443 326.992 560.076 327.281 560.076 327.577C560.076 336.737 559.95 351.416 560.323 357.232C560.569 359.703 562.041 363.192 563.868 364.21C565.827 365.518 570.231 365.807 573.29 365.807C581.732 365.807 589.2 360.143 589.2 346.764ZM539.338 281.488C540.443 281.488 543.696 281.921 552.018 281.921C559.847 281.921 566.211 281.632 573.782 281.632C583.204 281.632 596.171 285.706 596.171 302.568C596.171 310.826 591.279 317.543 584.916 320.743C584.55 320.888 584.55 321.177 584.916 321.321C593.971 324.074 601.921 330.77 601.921 343.564C601.921 356.069 595.437 363.921 586.016 368.863C580.288 371.918 573.169 372.93 565.97 372.93C560.466 372.93 545.712 372.242 537.511 372.352C536.651 371.918 538.295 367.259 539.028 366.536C540.907 366.467 542.772 366.116 544.578 365.49C547.511 364.623 547.86 363.488 548.226 358.25C548.473 353.743 548.473 337.604 548.473 326.118C548.473 310.413 548.599 299.808 548.473 294.571C548.352 290.503 547.127 289.189 544.801 288.466C542.969 288.026 539.91 287.592 537.465 287.159C536.852 286.429 538.736 282.066 539.343 281.488"
              fill="#21313C"
            />
            <path
              d="M100.475 372.469C100.16 371.538 100.033 370.531 100.103 369.53C100.076 368.848 100.204 368.169 100.475 367.569C102.058 367.294 103.626 366.911 105.172 366.419C107.337 365.773 108.15 364.355 108.276 361.038C108.631 353.199 108.654 338.492 108.528 328.155V327.852C108.528 326.737 108.528 325.223 107.383 324.157C105.369 322.639 103.184 321.48 100.894 320.716C99.8683 320.351 99.3013 319.704 99.33 318.947C99.3586 318.19 100.006 317.295 101.34 316.979C104.886 316.545 114.175 313.882 117.824 311.858C118.199 312.447 118.374 313.185 118.311 313.923C118.311 314.377 118.253 314.859 118.213 315.354C118.11 316.813 117.996 318.472 117.996 320.124C118.018 320.324 118.087 320.513 118.194 320.67C118.301 320.826 118.442 320.943 118.601 321.009C118.761 321.074 118.932 321.084 119.097 321.038C119.261 320.993 119.411 320.893 119.53 320.75C126.478 314.205 132.704 311.872 135.894 311.872C141.146 311.872 145.235 314.886 148.402 321.094C148.475 321.244 148.578 321.369 148.703 321.457C148.827 321.545 148.968 321.593 149.113 321.596C149.244 321.595 149.373 321.555 149.488 321.481C149.604 321.407 149.703 321.3 149.777 321.17C156.163 315.348 162.492 311.872 166.73 311.872C176.741 311.872 182.727 320.881 182.727 335.959C182.727 340.295 182.692 345.794 182.658 350.921C182.629 355.422 182.601 359.641 182.601 362.559C182.601 363.247 183.391 365.229 184.577 365.621C186.043 366.481 188.156 366.922 190.831 367.472H190.934C191.134 368.34 190.711 371.705 190.304 372.393C189.64 372.393 188.723 372.324 187.578 372.255C185.499 372.132 182.646 371.959 179.33 371.959C172.675 371.959 169.199 372.111 165.877 372.372C165.625 371.375 165.539 368.154 165.842 367.479C167.218 367.221 168.58 366.865 169.92 366.413C172.039 365.573 172.652 364.417 172.784 361.038C172.835 358.636 173.219 337.473 172.538 332.45C171.908 327.24 168.643 321.142 161.501 321.142C158.849 321.142 154.571 322.47 150.493 326.187C150.24 326.531 150.098 326.973 150.092 327.432V327.536C150.573 330.247 150.573 333.413 150.573 338.196C150.573 340.949 150.573 343.819 150.544 346.689C150.516 352.525 150.493 358.03 150.573 362.194C150.573 365.029 151.999 365.711 153.15 366.254C153.775 366.419 154.267 366.564 154.765 366.702C155.722 366.984 156.719 367.273 158.202 367.555C158.421 368.764 158.402 370.018 158.145 371.216C158.084 371.666 157.937 372.092 157.715 372.462C154.015 372.31 150.218 372.18 144.737 372.18C143.076 372.18 140.367 372.262 137.973 372.338C136.031 372.4 134.198 372.462 133.156 372.469C132.874 371.669 132.749 370.803 132.789 369.936C132.731 369.119 132.864 368.299 133.173 367.569L134.645 367.245C135.928 366.97 137.039 366.736 138.082 366.419C139.891 365.731 140.573 364.548 140.705 361.774C141.06 355.305 141.335 336.661 140.573 331.995C139.279 324.508 135.733 320.709 130.029 320.709C126.69 320.709 122.469 322.643 119.021 325.746C118.689 326.134 118.428 326.601 118.253 327.116C118.079 327.631 117.995 328.184 118.007 328.74C118.007 330.963 118.007 333.606 118.007 336.441C118.007 345.801 117.955 357.452 118.144 362.49C118.259 364.045 118.717 365.89 121.14 366.564C121.673 366.75 122.589 366.929 123.654 367.142C124.267 367.266 124.937 367.397 125.63 367.548C125.85 369.196 125.739 370.884 125.304 372.469C124.238 372.469 122.927 372.386 121.426 372.31C119.135 372.187 116.272 372.035 113.036 372.035C109.21 372.035 106.546 372.187 104.41 372.31C102.973 372.393 101.73 372.462 100.487 372.469"
              fill="#21313C"
            />
            <path
              d="M223.3 318.094C221.232 318.042 219.199 318.729 217.458 320.069C213.208 323.172 211.043 329.373 211.043 338.485C211.043 355.539 218.151 367.452 228.328 367.452C231.057 367.556 233.719 366.423 235.785 364.279C238.913 361.217 240.573 354.954 240.573 346.186C240.573 329.387 233.626 318.094 223.288 318.094M225.247 373.776C206.862 373.776 200.316 357.569 200.316 342.408C200.316 331.816 203.918 323.537 211.026 317.791C216.004 314.087 221.718 312.058 227.572 311.913C241.599 311.913 251.398 324.033 251.398 341.396C251.398 353.192 247.486 362.51 240.081 368.333C236.524 370.948 230.344 373.776 225.247 373.776Z"
              fill="#21313C"
            />
            <path
              d="M410.471 318.094C408.4 318.037 406.362 318.725 404.618 320.069C400.368 323.172 398.203 329.373 398.203 338.485C398.203 355.539 405.311 367.452 415.488 367.452C418.225 367.563 420.896 366.43 422.968 364.279C426.095 361.217 427.751 354.954 427.751 346.186C427.751 329.387 420.809 318.094 410.471 318.094ZM412.43 373.776C394.045 373.776 387.498 357.569 387.498 342.415C387.498 331.809 391.101 323.537 398.214 317.791C403.19 314.085 408.903 312.055 414.755 311.913C428.781 311.913 438.581 324.04 438.581 341.389C438.581 353.199 434.669 362.51 427.264 368.326C423.707 370.948 417.527 373.776 412.43 373.776Z"
              fill="#21313C"
            />
            <path
              d="M348.569 317.515C342.905 317.515 339.239 322.89 339.239 331.211C339.239 339.531 342.395 349.421 351.267 349.421C352.79 349.421 355.551 348.609 356.92 346.799C358.982 344.521 360.356 339.813 360.356 334.844C360.356 323.991 355.958 317.515 348.598 317.515M347.865 374.939C346.265 374.918 344.687 375.392 343.283 376.316C338.798 379.757 336.719 383.198 336.719 387.196C336.719 390.94 337.928 393.92 340.528 396.563C343.678 399.77 347.928 401.332 353.512 401.332C364.503 401.332 369.428 394.23 369.428 387.196C369.428 382.296 367.384 379.014 363.174 377.155C359.932 375.731 354.514 374.946 347.882 374.946M348.615 408.669C342.017 408.669 337.263 406.996 333.203 403.239C329.251 399.577 327.475 394.14 327.475 390.383C327.518 387.961 328.287 385.64 329.64 383.845C330.786 382.276 333.449 379.337 339.606 374.251C339.701 374.202 339.783 374.121 339.84 374.017C339.897 373.913 339.927 373.791 339.927 373.666C339.929 373.527 339.891 373.391 339.82 373.281C339.75 373.171 339.65 373.093 339.537 373.061C334.468 370.728 332.939 366.867 332.475 364.802C332.475 364.726 332.475 364.609 332.424 364.479C332.281 363.667 332.143 362.896 333.065 362.104C333.775 361.499 334.909 360.687 336.124 359.826C337.838 358.686 339.482 357.401 341.043 355.979C341.127 355.871 341.19 355.741 341.225 355.599C341.261 355.457 341.269 355.308 341.249 355.162C341.229 355.015 341.182 354.877 341.11 354.756C341.039 354.635 340.946 354.536 340.837 354.465C333.334 351.437 329.554 344.741 329.554 334.507C329.531 331.316 330.149 328.165 331.356 325.322C332.562 322.479 334.321 320.028 336.484 318.176C339.503 315.306 347.08 311.858 351.989 311.858H352.275C357.321 312.003 360.167 313.276 364.108 315.024C366.349 315.998 368.724 316.451 371.107 316.359C375.282 316.359 377.109 314.769 378.678 312.918C378.933 313.752 379.068 314.632 379.079 315.52C379.175 317.636 378.697 319.732 377.716 321.493C376.863 322.918 374.852 323.95 373.014 323.95C372.825 323.95 372.642 323.95 372.441 323.916C371.474 323.834 370.515 323.643 369.577 323.345L369.108 323.544C368.959 323.806 369.056 324.095 369.176 324.466C369.206 324.539 369.229 324.615 369.245 324.693C369.58 326.53 369.808 328.393 369.927 330.268C369.927 340.97 366.416 345.629 362.619 349.083C358.947 352.393 354.587 354.422 350.018 354.947C349.921 354.947 349.446 354.995 348.552 355.092C347.979 355.153 347.235 355.236 347.126 355.236H347.017C346.192 355.511 344.039 356.743 344.039 359.035C344.039 360.934 345.013 363.295 349.669 363.722L352.682 363.976C358.821 364.492 366.49 365.132 370.099 366.598C372.492 367.61 374.559 369.502 376.006 372.007C377.453 374.511 378.206 377.5 378.157 380.548C378.157 390.149 372.475 399.178 362.962 404.698C358.476 407.272 353.564 408.597 348.592 408.572"
              fill="#21313C"
            />
            <path
              d="M320.471 367.349C317.779 366.915 315.814 366.474 313.495 365.167C313.039 364.6 312.74 363.88 312.636 363.102C312.389 358.595 312.389 345.512 312.389 336.95C312.389 329.965 311.416 323.874 308.953 319.504C306.015 314.556 301.857 311.652 296.473 311.652C291.702 311.652 285.339 315.575 280.081 320.956C279.955 321.101 279.147 322.023 279.165 320.592C279.182 319.16 279.365 316.256 279.48 314.398C279.53 313.904 279.484 313.403 279.345 312.935C279.206 312.466 278.977 312.043 278.678 311.7C275.241 313.765 265.602 316.518 262.034 316.937C259.434 317.543 258.775 320.55 261.553 321.59H261.593C263.816 322.326 265.939 323.448 267.893 324.921C268.993 325.939 268.872 327.391 268.872 328.554C268.993 338.292 268.993 353.268 268.626 361.409C268.506 364.609 267.767 365.773 265.808 366.357L265.992 366.282C264.5 366.731 262.987 367.071 261.461 367.3C260.848 368.023 260.848 372.242 261.461 373.116C262.687 373.116 268.907 372.682 274.061 372.682C281.152 372.682 284.823 373.116 286.662 373.116C287.401 372.097 287.641 368.174 287.154 367.3C285.46 367.208 283.778 366.916 282.131 366.426C280.178 365.848 279.686 364.678 279.566 362.07C279.325 355.229 279.325 340.694 279.325 330.805C279.325 328.052 279.932 326.737 280.665 325.987C283.111 323.372 287.154 321.631 290.7 321.631C294.136 321.631 296.427 322.938 298.145 324.68C300.147 326.778 301.401 329.719 301.65 332.897C302.137 338.403 302.011 349.476 302.011 359.049C302.011 364.286 301.65 365.6 300.058 366.179C299.325 366.612 297.366 367.053 295.041 367.342C294.308 368.216 294.548 372.283 295.041 373.157C298.22 373.157 301.914 372.723 307.275 372.723C314.004 372.723 318.288 373.157 320.001 373.157C320.734 372.138 320.98 368.34 320.494 367.342"
              fill="#21313C"
            />
          </svg>