<svg width="77" height="54" viewBox="0 0 77 54" fill="none" xmlns="http://www.w3.org/2000/svg">
<path d="M46 52.9976L53.5 40.0072" stroke="black" stroke-linecap="round"/>
<path d="M53.5 40.0072H68.5" stroke="black" stroke-linecap="round"/>
<path d="M68.5 40.0072L76 52.9976" stroke="black" stroke-linecap="round"/>
<path d="M76 1.00241L68.5 13.9928" stroke="black" stroke-linecap="round"/>
<path d="M68.5 13.9928H53.5" stroke="black" stroke-linecap="round"/>
<path d="M53.5 13.9928L46 1.00242" stroke="black" stroke-linecap="round"/>
<path d="M46 26.9952L53.5 14.0024" stroke="black" stroke-linecap="round"/>
<path d="M68.5 14.0024L76.001 26.9946" stroke="black" stroke-linecap="round"/>
<path d="M53.5 14.0024H68.5" stroke="black" stroke-linecap="round"/>
<path d="M76 26.9952L68.499 39.9874" stroke="black" stroke-linecap="round"/>
<path d="M53.5 39.988L46 26.9952" stroke="black" stroke-linecap="round"/>
<path d="M68.5 39.988H53.5" stroke="black" stroke-linecap="round"/>
<path d="M23.5 13.9928L31 1.00002" stroke="black" stroke-linecap="round"/>
<path d="M46 1L53.501 13.9922" stroke="black" stroke-linecap="round"/>
<path d="M31 1L46 1" stroke="black" stroke-linecap="round"/>
<path d="M53.5 13.9928L45.999 26.985" stroke="black" stroke-linecap="round"/>
<path d="M31 26.9856L23.5 13.9928" stroke="black" stroke-linecap="round"/>
<path d="M46 26.9856H31" stroke="black" stroke-linecap="round"/>
<path d="M23.5 39.9976L31 27.0048" stroke="black" stroke-linecap="round"/>
<path d="M46 27.0048L53.501 39.997" stroke="black" stroke-linecap="round"/>
<path d="M31 27.0048H46" stroke="black" stroke-linecap="round"/>
<path d="M53.5 39.9976L45.999 52.9898" stroke="black" stroke-linecap="round"/>
<path d="M31 52.9904L23.5 39.9976" stroke="black" stroke-linecap="round"/>
<path d="M46 52.9904H31" stroke="black" stroke-linecap="round"/>
<path d="M1 26.9952L8.5 14.0024" stroke="black" stroke-linecap="round"/>
<path d="M23.5 14.0024L31.001 26.9946" stroke="black" stroke-linecap="round"/>
<path d="M8.5 14.0024H23.5" stroke="black" stroke-linecap="round"/>
<path d="M31 26.9952L23.499 39.9874" stroke="black" stroke-linecap="round"/>
<path d="M8.5 39.988L1 26.9952" stroke="black" stroke-linecap="round"/>
<path d="M23.5 39.988H8.5" stroke="black" stroke-linecap="round"/>
</svg>
