<svg width="95" height="60" viewBox="0 0 95 60" fill="none" xmlns="http://www.w3.org/2000/svg">
<path d="M55 55.9976L62.5 43.0072" stroke="black" stroke-width="2px"  stroke-linecap="round"/>
<path d="M62.5 43.0072H77.5" stroke="black" stroke-width="2px"   stroke-linecap="round"/>
<path d="M77.5 43.0072L85 55.9976"  stroke="black" stroke-width="2px"  stroke-linecap="round"/>
<path d="M85 4.00238L77.5 16.9928"  stroke="black" stroke-width="2px"  stroke-linecap="round"/>
<path d="M77.5 16.9928H62.5"  stroke="black" stroke-width="2px"  stroke-linecap="round"/>
<path d="M62.5 16.9928L55 4.0024" stroke="black" stroke-width="2px"   stroke-linecap="round"/>
<path d="M55 29.9952L62.5 17.0024"  stroke="black" stroke-width="2px"  stroke-linecap="round"/>
<path d="M77.5 17.0024L85.001 29.9946" stroke="black" stroke-width="2px"   stroke-linecap="round"/>
<path d="M62.5 17.0024H77.5" stroke="black" stroke-width="2px"   stroke-linecap="round"/>
<path d="M85 29.9952L77.499 42.9874" stroke="black" stroke-width="2px"   stroke-linecap="round"/>
<path d="M62.5 42.988L55 29.9952" stroke="black" stroke-width="2px"   stroke-linecap="round"/>
<path d="M77.5 42.988H62.5" stroke="black" stroke-width="2px"   stroke-linecap="round"/>
<path d="M32.5 16.9928L40 4"  stroke="black" stroke-width="2px"  stroke-linecap="round"/>
<path d="M55 4L62.501 16.9922"  stroke="black" stroke-width="2px"  stroke-linecap="round"/>
<path d="M40 4L55 4"  stroke="black" stroke-width="2px"  stroke-linecap="round"/>
<path d="M62.5 16.9928L54.999 29.985"  stroke="black" stroke-width="2px"  stroke-linecap="round"/>
<path d="M40 29.9856L32.5 16.9928" stroke="black" stroke-width="2px"   stroke-linecap="round"/>
<path d="M55 29.9856H40" stroke="black" stroke-width="2px"   stroke-linecap="round"/>
<path d="M32.5 42.9976L40 30.0048"  stroke="black" stroke-width="2px"  stroke-linecap="round"/>
<path d="M55 30.0048L62.501 42.997" stroke="black" stroke-width="2px"   stroke-linecap="round"/>
<path d="M40 30.0048H55" stroke="black" stroke-width="2px"   stroke-linecap="round"/>
<path d="M62.5 42.9976L54.999 55.9898" stroke="black" stroke-width="2px"   stroke-linecap="round"/>
<path d="M40 55.9904L32.5 42.9976" stroke="black" stroke-width="2px"   stroke-linecap="round"/>
<path d="M55 55.9904H40" stroke="black" stroke-width="2px"   stroke-linecap="round"/>
<path d="M10 29.9952L17.5 17.0024" stroke="black" stroke-width="2px"   stroke-linecap="round"/>
<path d="M32.5 17.0024L40.001 29.9946" stroke="black" stroke-width="2px"   stroke-linecap="round"/>
<path d="M17.5 17.0024H32.5" stroke="black" stroke-width="2px"   stroke-linecap="round"/>
<path d="M40 29.9952L32.499 42.9874" stroke="black" stroke-width="2px"   stroke-linecap="round"/>
<path d="M17.5 42.988L10 29.9952" stroke="black" stroke-width="2px"   stroke-linecap="round"/>
<path d="M32.5 42.988H17.5" stroke="black" stroke-width="2px"   stroke-linecap="round"/>
</svg>
